<svg width="373" height="115" viewBox="0 0 373 115" fill="none" xmlns="http://www.w3.org/2000/svg">
<path d="M359.538 79H348.522C348.303 79 348.194 78.875 348.194 78.625L348.286 51.8331C348.287 51.509 348.236 51.1869 348.134 50.8793L335.444 12.5781C335.381 12.3281 335.475 12.2031 335.725 12.2031H346.413C346.725 12.2031 346.913 12.3281 346.975 12.5781L351.188 27.9523C351.993 30.8874 356.152 30.8979 356.971 27.9669L361.272 12.5781C361.334 12.3281 361.491 12.2031 361.741 12.2031H372.522C372.772 12.2031 372.866 12.3281 372.803 12.5781L359.979 50.4962C359.873 50.8091 359.819 51.1373 359.82 51.4676L359.913 78.625C359.913 78.875 359.788 79 359.538 79Z" fill="black"/>
<path d="M291.372 79H280.497C280.247 79 280.122 78.8438 280.122 78.5313L280.309 12.6719C280.309 12.3594 280.434 12.2031 280.684 12.2031H291.466C291.716 12.2031 291.841 12.3594 291.841 12.6719V28.7379C291.841 30.7221 294.419 31.4953 295.511 29.8386L306.776 12.7479C306.85 12.635 306.933 12.5269 307.038 12.4413C307.232 12.2825 307.416 12.2031 307.591 12.2031H318.606C318.887 12.2031 318.95 12.3281 318.794 12.5781L302.78 38.1373C302.418 38.714 302.375 39.4347 302.665 40.0505L320.809 78.625C320.966 78.875 320.809 79 320.341 79H308.622C308.391 79 308.228 78.9318 308.134 78.7953C308.063 78.693 308.033 78.5682 307.981 78.4553L296.612 53.747C295.95 52.3069 293.955 52.1733 293.106 53.5121L292.058 55.166C291.855 55.4862 291.747 55.8576 291.747 56.2368V78.5313C291.747 78.8438 291.622 79 291.372 79Z" fill="black"/>
<path d="M239.894 79.9375C236.425 79.9375 233.253 79.0625 230.378 77.3125C227.534 75.5625 225.269 73.2188 223.581 70.2813C221.925 67.3125 221.097 64.0156 221.097 60.3906L221.191 30.4375C221.191 26.875 222.003 23.6563 223.628 20.7813C225.253 17.875 227.488 15.5469 230.331 13.7969C233.206 12.0156 236.394 11.125 239.894 11.125C243.456 11.125 246.628 11.9844 249.409 13.7031C252.222 15.4219 254.456 17.75 256.113 20.6875C257.8 23.5938 258.644 26.8438 258.644 30.4375V34.8438C258.644 35.0938 258.519 35.2188 258.269 35.2188H247.488C247.238 35.2188 247.113 35.0938 247.113 34.8438V30.4375C247.113 28.3125 246.425 26.4844 245.05 24.9531C243.675 23.4219 241.956 22.6563 239.894 22.6563C237.613 22.6563 235.863 23.4375 234.644 25C233.425 26.5625 232.816 28.375 232.816 30.4375V60.3906C232.816 62.7344 233.503 64.6563 234.878 66.1563C236.253 67.625 237.925 68.3594 239.894 68.3594C241.956 68.3594 243.675 67.5469 245.05 65.9219C246.425 64.2656 247.113 62.4219 247.113 60.3906V55.9375C247.113 55.6875 247.238 55.5625 247.488 55.5625H258.363C258.613 55.5625 258.738 55.6875 258.738 55.9375V60.3906C258.738 63.9844 257.894 67.2656 256.206 70.2344C254.488 73.1719 252.222 75.5313 249.409 77.3125C246.597 79.0625 243.425 79.9375 239.894 79.9375Z" fill="black"/>
<path d="M165.737 78.9361C165.496 78.7602 165.614 78.3838 165.667 78.0907L177.494 12.5781C177.556 12.3281 177.712 12.2031 177.962 12.2031H191.884C192.134 12.2031 192.291 12.3281 192.353 12.5781L203.791 78.5313C203.822 78.8438 203.697 79 203.416 79H192.775C192.462 79 192.291 78.8438 192.259 78.5313L191.855 75.7744C191.495 73.3195 189.389 71.5 186.908 71.5H182.47C179.989 71.5 177.883 73.3195 177.523 75.7744L177.119 78.5313C177.087 78.8438 176.931 79 176.65 79H165.962C165.87 79 165.795 78.9787 165.737 78.9361ZM184.384 34.2813L180.806 56.6438C180.421 59.0525 182.282 61.2344 184.721 61.2344V61.2344C187.138 61.2344 188.993 59.0892 188.643 56.6971L185.369 34.2813V34.2813C185.279 33.7127 184.452 33.7096 184.384 34.2813V34.2813Z" fill="black"/>
<path d="M142.281 79H131.453C131.172 79 131.031 78.8438 131.031 78.5313V27.7813C131.031 25.5721 129.24 23.7813 127.031 23.7813H118.562C118.25 23.7813 118.094 23.625 118.094 23.3125L118.188 12.5781C118.188 12.3281 118.312 12.2031 118.562 12.2031H155.031C155.375 12.2031 155.547 12.3281 155.547 12.5781V23.3125C155.547 23.625 155.422 23.7813 155.172 23.7813H146.569C144.358 23.7813 142.566 25.5763 142.569 27.7881L142.656 78.5313C142.656 78.8438 142.531 79 142.281 79Z" fill="black"/>
<path d="M176.781 108H175.58C175.518 108 175.486 107.973 175.486 107.918L175.475 99.7441C175.475 99.6816 175.506 99.6504 175.568 99.6504H176.652L178.68 104.379L178.621 99.7441C178.621 99.6816 178.656 99.6504 178.727 99.6504H179.916C179.963 99.6504 179.986 99.6816 179.986 99.7441L179.998 107.93C179.998 107.977 179.979 108 179.939 108H178.885L176.805 103.582L176.893 107.906C176.893 107.969 176.855 108 176.781 108ZM186.767 108H182.888C182.857 108 182.841 107.98 182.841 107.941L182.853 99.6973C182.853 99.666 182.868 99.6504 182.9 99.6504H186.755C186.786 99.6504 186.802 99.6699 186.802 99.709V101.051C186.802 101.082 186.786 101.098 186.755 101.098H184.294V102.973H186.755C186.786 102.973 186.802 102.988 186.802 103.02L186.814 104.379C186.814 104.41 186.798 104.426 186.767 104.426H184.294V106.523H186.767C186.798 106.523 186.814 106.543 186.814 106.582V107.953C186.814 107.984 186.798 108 186.767 108ZM192.481 108H191.028C190.993 108 190.973 107.98 190.969 107.941L189.311 99.6973C189.303 99.666 189.319 99.6504 189.358 99.6504H190.717C190.748 99.6504 190.768 99.666 190.776 99.6973L191.76 105.193L192.721 99.6973C192.729 99.666 192.748 99.6504 192.78 99.6504H194.121C194.164 99.6504 194.18 99.666 194.168 99.6973L192.539 107.941C192.536 107.98 192.516 108 192.481 108ZM200.597 108H196.718C196.687 108 196.671 107.98 196.671 107.941L196.683 99.6973C196.683 99.666 196.699 99.6504 196.73 99.6504H200.586C200.617 99.6504 200.632 99.6699 200.632 99.709V101.051C200.632 101.082 200.617 101.098 200.586 101.098H198.125V102.973H200.586C200.617 102.973 200.632 102.988 200.632 103.02L200.644 104.379C200.644 104.41 200.629 104.426 200.597 104.426H198.125V106.523H200.597C200.629 106.523 200.644 106.543 200.644 106.582V107.953C200.644 107.984 200.629 108 200.597 108ZM204.917 108H203.557C203.526 108 203.511 107.98 203.511 107.941L203.534 99.6973C203.534 99.666 203.55 99.6504 203.581 99.6504H206.007C206.44 99.6504 206.839 99.7559 207.202 99.9668C207.565 100.178 207.854 100.461 208.069 100.816C208.288 101.172 208.397 101.574 208.397 102.023C208.397 102.316 208.352 102.582 208.263 102.82C208.173 103.059 208.067 103.26 207.946 103.424C207.829 103.588 207.721 103.709 207.624 103.787C208.057 104.268 208.274 104.832 208.274 105.48L208.286 107.941C208.286 107.98 208.266 108 208.227 108H206.868C206.837 108 206.821 107.988 206.821 107.965V105.48C206.821 105.191 206.72 104.941 206.516 104.73C206.313 104.52 206.063 104.414 205.766 104.414H204.975L204.964 107.941C204.964 107.98 204.948 108 204.917 108ZM206.007 101.086H204.975V102.973H206.007C206.253 102.973 206.471 102.881 206.663 102.697C206.858 102.514 206.956 102.289 206.956 102.023C206.956 101.77 206.862 101.551 206.675 101.367C206.487 101.18 206.264 101.086 206.007 101.086ZM218.214 108.117C217.78 108.117 217.39 108.01 217.042 107.795C216.691 107.58 216.407 107.291 216.193 106.928C215.982 106.564 215.876 106.158 215.876 105.709V101.906C215.876 101.469 215.984 101.07 216.198 100.711C216.409 100.348 216.693 100.059 217.048 99.8438C217.404 99.625 217.792 99.5156 218.214 99.5156C218.655 99.5156 219.054 99.6211 219.409 99.832C219.765 100.047 220.046 100.334 220.253 100.693C220.464 101.053 220.57 101.457 220.57 101.906V102.457C220.57 102.488 220.55 102.504 220.511 102.504H219.163C219.132 102.504 219.116 102.488 219.116 102.457V102C219.116 101.695 219.03 101.443 218.859 101.244C218.687 101.045 218.472 100.945 218.214 100.945C217.984 100.945 217.779 101.041 217.599 101.232C217.419 101.424 217.329 101.648 217.329 101.906V105.709C217.329 105.971 217.417 106.197 217.593 106.389C217.769 106.576 217.976 106.67 218.214 106.67C218.472 106.67 218.687 106.578 218.859 106.395C219.03 106.207 219.116 105.979 219.116 105.709V105.117H218.279C218.236 105.117 218.214 105.098 218.214 105.059V103.717C218.214 103.678 218.236 103.658 218.279 103.658H220.523C220.554 103.658 220.57 103.678 220.57 103.717V105.709C220.57 106.158 220.464 106.564 220.253 106.928C220.038 107.291 219.755 107.58 219.404 107.795C219.052 108.01 218.655 108.117 218.214 108.117ZM225.44 108.117C225.014 108.117 224.621 108.008 224.262 107.789C223.907 107.57 223.62 107.279 223.401 106.916C223.186 106.549 223.079 106.146 223.079 105.709L223.09 101.906C223.09 101.461 223.198 101.061 223.412 100.705C223.623 100.346 223.909 100.059 224.268 99.8438C224.627 99.625 225.018 99.5156 225.44 99.5156C225.877 99.5156 226.27 99.623 226.618 99.8379C226.969 100.053 227.25 100.342 227.461 100.705C227.676 101.064 227.784 101.465 227.784 101.906L227.795 105.709C227.795 106.146 227.69 106.547 227.479 106.91C227.264 107.277 226.979 107.57 226.623 107.789C226.268 108.008 225.873 108.117 225.44 108.117ZM225.44 106.67C225.682 106.67 225.893 106.572 226.073 106.377C226.252 106.178 226.342 105.955 226.342 105.709L226.33 101.906C226.33 101.641 226.246 101.416 226.079 101.232C225.911 101.049 225.698 100.957 225.44 100.957C225.194 100.957 224.983 101.047 224.807 101.227C224.631 101.406 224.543 101.633 224.543 101.906V105.709C224.543 105.971 224.631 106.197 224.807 106.389C224.983 106.576 225.194 106.67 225.44 106.67ZM237.641 108.117C237.216 108.117 236.823 108.008 236.464 107.789C236.108 107.57 235.821 107.279 235.602 106.916C235.388 106.549 235.28 106.146 235.28 105.709L235.292 101.906C235.292 101.461 235.399 101.061 235.614 100.705C235.825 100.346 236.11 100.059 236.47 99.8438C236.829 99.625 237.22 99.5156 237.641 99.5156C238.079 99.5156 238.471 99.623 238.819 99.8379C239.171 100.053 239.452 100.342 239.663 100.705C239.878 101.064 239.985 101.465 239.985 101.906L239.997 105.709C239.997 106.146 239.891 106.547 239.68 106.91C239.466 107.277 239.18 107.57 238.825 107.789C238.47 108.008 238.075 108.117 237.641 108.117ZM237.641 106.67C237.884 106.67 238.095 106.572 238.274 106.377C238.454 106.178 238.544 105.955 238.544 105.709L238.532 101.906C238.532 101.641 238.448 101.416 238.28 101.232C238.112 101.049 237.899 100.957 237.641 100.957C237.395 100.957 237.184 101.047 237.009 101.227C236.833 101.406 236.745 101.633 236.745 101.906V105.709C236.745 105.971 236.833 106.197 237.009 106.389C237.184 106.576 237.395 106.67 237.641 106.67ZM244.914 108.117C244.492 108.117 244.102 108.008 243.742 107.789C243.383 107.57 243.096 107.277 242.881 106.91C242.67 106.539 242.564 106.135 242.564 105.697L242.588 99.6973C242.588 99.666 242.604 99.6504 242.635 99.6504H243.982C244.014 99.6504 244.029 99.666 244.029 99.6973V105.697C244.029 105.967 244.115 106.197 244.287 106.389C244.459 106.576 244.668 106.67 244.914 106.67C245.172 106.67 245.387 106.576 245.559 106.389C245.73 106.197 245.816 105.967 245.816 105.697V99.6973C245.816 99.666 245.832 99.6504 245.863 99.6504H247.211C247.242 99.6504 247.258 99.666 247.258 99.6973L247.281 105.697C247.281 106.139 247.176 106.545 246.965 106.916C246.75 107.283 246.465 107.576 246.109 107.795C245.754 108.01 245.355 108.117 244.914 108.117ZM252.585 108H251.232C251.196 108 251.179 107.98 251.179 107.941V101.098H249.62C249.581 101.098 249.562 101.078 249.562 101.039L249.573 99.6973C249.573 99.666 249.589 99.6504 249.62 99.6504H254.179C254.222 99.6504 254.243 99.666 254.243 99.6973V101.039C254.243 101.078 254.228 101.098 254.196 101.098H252.62L252.632 107.941C252.632 107.98 252.616 108 252.585 108ZM263.767 108.117C263.341 108.117 262.949 108.008 262.589 107.789C262.234 107.57 261.947 107.279 261.728 106.916C261.513 106.549 261.406 106.146 261.406 105.709L261.418 101.906C261.418 101.461 261.525 101.061 261.74 100.705C261.951 100.346 262.236 100.059 262.595 99.8438C262.955 99.625 263.345 99.5156 263.767 99.5156C264.205 99.5156 264.597 99.623 264.945 99.8379C265.296 100.053 265.578 100.342 265.789 100.705C266.004 101.064 266.111 101.465 266.111 101.906L266.123 105.709C266.123 106.146 266.017 106.547 265.806 106.91C265.591 107.277 265.306 107.57 264.951 107.789C264.595 108.008 264.201 108.117 263.767 108.117ZM263.767 106.67C264.009 106.67 264.22 106.572 264.4 106.377C264.58 106.178 264.67 105.955 264.67 105.709L264.658 101.906C264.658 101.641 264.574 101.416 264.406 101.232C264.238 101.049 264.025 100.957 263.767 100.957C263.521 100.957 263.31 101.047 263.134 101.227C262.959 101.406 262.871 101.633 262.871 101.906V105.709C262.871 105.971 262.959 106.197 263.134 106.389C263.31 106.576 263.521 106.67 263.767 106.67ZM270.237 108H268.889C268.85 108 268.831 107.98 268.831 107.941L268.854 99.6973C268.854 99.666 268.87 99.6504 268.901 99.6504H272.745C272.784 99.6504 272.804 99.666 272.804 99.6973V101.051C272.804 101.082 272.788 101.098 272.757 101.098H270.296V102.961H272.757C272.788 102.961 272.804 102.98 272.804 103.02L272.815 104.379C272.815 104.41 272.796 104.426 272.757 104.426H270.296V107.941C270.296 107.98 270.276 108 270.237 108ZM282.638 108.117C282.212 108.117 281.82 108.008 281.46 107.789C281.105 107.57 280.82 107.279 280.605 106.916C280.394 106.549 280.288 106.146 280.288 105.709V105.158C280.288 105.115 280.308 105.094 280.347 105.094H281.695C281.726 105.094 281.741 105.115 281.741 105.158V105.709C281.741 105.971 281.829 106.197 282.005 106.389C282.181 106.576 282.392 106.67 282.638 106.67C282.888 106.67 283.101 106.574 283.277 106.383C283.452 106.188 283.54 105.963 283.54 105.709C283.54 105.416 283.349 105.16 282.966 104.941C282.904 104.902 282.821 104.855 282.72 104.801C282.622 104.742 282.505 104.676 282.368 104.602C282.232 104.527 282.099 104.455 281.97 104.385C281.841 104.311 281.716 104.24 281.595 104.174C281.157 103.916 280.831 103.594 280.616 103.207C280.405 102.816 280.3 102.379 280.3 101.895C280.3 101.449 280.409 101.047 280.628 100.688C280.847 100.332 281.132 100.051 281.484 99.8438C281.839 99.6328 282.224 99.5273 282.638 99.5273C283.064 99.5273 283.454 99.6328 283.81 99.8438C284.165 100.059 284.448 100.344 284.659 100.699C284.874 101.055 284.982 101.453 284.982 101.895V102.879C284.982 102.91 284.966 102.926 284.935 102.926H283.587C283.556 102.926 283.54 102.91 283.54 102.879L283.529 101.895C283.529 101.613 283.441 101.385 283.265 101.209C283.089 101.033 282.88 100.945 282.638 100.945C282.392 100.945 282.181 101.039 282.005 101.227C281.829 101.414 281.741 101.637 281.741 101.895C281.741 102.156 281.796 102.375 281.905 102.551C282.019 102.727 282.224 102.895 282.521 103.055C282.552 103.07 282.624 103.109 282.738 103.172C282.851 103.234 282.976 103.305 283.113 103.383C283.253 103.457 283.38 103.525 283.493 103.588C283.607 103.646 283.675 103.682 283.698 103.693C284.097 103.916 284.411 104.189 284.642 104.514C284.876 104.838 284.993 105.236 284.993 105.709C284.993 106.166 284.888 106.576 284.677 106.939C284.462 107.303 284.177 107.59 283.821 107.801C283.466 108.012 283.071 108.117 282.638 108.117ZM290.186 108H288.832C288.797 108 288.78 107.98 288.78 107.941V101.098H287.221C287.182 101.098 287.162 101.078 287.162 101.039L287.174 99.6973C287.174 99.666 287.19 99.6504 287.221 99.6504H291.78C291.823 99.6504 291.844 99.666 291.844 99.6973V101.039C291.844 101.078 291.829 101.098 291.797 101.098H290.221L290.233 107.941C290.233 107.98 290.217 108 290.186 108ZM296.732 108H295.355C295.328 108 295.314 107.984 295.314 107.953L295.326 104.543L293.72 99.6973C293.713 99.666 293.724 99.6504 293.755 99.6504H295.091C295.13 99.6504 295.154 99.666 295.162 99.6973L296.046 102.926L296.949 99.6973C296.957 99.666 296.976 99.6504 297.007 99.6504H298.355C298.386 99.6504 298.398 99.666 298.39 99.6973L296.767 104.496L296.779 107.953C296.779 107.984 296.763 108 296.732 108ZM304.772 108H300.893C300.862 108 300.846 107.98 300.846 107.941L300.858 99.709C300.858 99.6699 300.878 99.6504 300.917 99.6504H302.253C302.292 99.6504 302.311 99.6699 302.311 99.709L302.3 106.523H304.772C304.811 106.523 304.831 106.543 304.831 106.582V107.941C304.831 107.98 304.811 108 304.772 108ZM311.342 108H307.463C307.432 108 307.416 107.98 307.416 107.941L307.428 99.6973C307.428 99.666 307.443 99.6504 307.475 99.6504H311.33C311.361 99.6504 311.377 99.6699 311.377 99.709V101.051C311.377 101.082 311.361 101.098 311.33 101.098H308.869V102.973H311.33C311.361 102.973 311.377 102.988 311.377 103.02L311.389 104.379C311.389 104.41 311.373 104.426 311.342 104.426H308.869V106.523H311.342C311.373 106.523 311.389 106.543 311.389 106.582V107.953C311.389 107.984 311.373 108 311.342 108Z" fill="black"/>
<line x1="133" y1="103.5" x2="162" y2="103.5" stroke="black"/>
<line x1="331" y1="103.5" x2="360" y2="103.5" stroke="black"/>
<circle cx="43" cy="43" r="43" fill="#FF6363"/>
</svg>
